<svg width="16" height="17" viewBox="0 0 16 17" fill="none" xmlns="http://www.w3.org/2000/svg">
<path d="M7.33594 3.16617H2.66927C2.31565 3.16617 1.97651 3.30664 1.72646 3.55669C1.47641 3.80674 1.33594 4.14588 1.33594 4.4995V13.8328C1.33594 14.1865 1.47641 14.5256 1.72646 14.7756C1.97651 15.0257 2.31565 15.1662 2.66927 15.1662H12.0026C12.3562 15.1662 12.6954 15.0257 12.9454 14.7756C13.1955 14.5256 13.3359 14.1865 13.3359 13.8328V9.16617M12.3359 2.16617C12.6012 1.90095 12.9609 1.75195 13.3359 1.75195C13.711 1.75195 14.0707 1.90095 14.3359 2.16617C14.6012 2.43138 14.7502 2.79109 14.7502 3.16617C14.7502 3.54124 14.6012 3.90095 14.3359 4.16617L8.0026 10.4995L5.33594 11.1662L6.0026 8.4995L12.3359 2.16617Z" stroke="#007AFF" stroke-width="1.3" stroke-linecap="round" stroke-linejoin="round"/>
</svg>
