<svg width="24" height="24" viewBox="0 0 24 24" fill="none" xmlns="http://www.w3.org/2000/svg">
<path d="M6.26872 8V7C6.26872 3.68629 8.87383 1 12.0874 1C15.301 1 17.9061 3.68629 17.9061 7V8H19.8456C20.3812 8 20.8154 8.44772 20.8154 9V21C20.8154 21.5523 20.3812 22 19.8456 22H4.32916C3.79356 22 3.35938 21.5523 3.35938 21V9C3.35938 8.44772 3.79356 8 4.32916 8H6.26872ZM18.8759 10H5.29894V20H18.8759V10ZM11.1176 15.7324C10.5379 15.3866 10.1478 14.7403 10.1478 14C10.1478 12.8954 11.0162 12 12.0874 12C13.1586 12 14.027 12.8954 14.027 14C14.027 14.7403 13.6369 15.3866 13.0572 15.7324V18H11.1176V15.7324ZM8.20828 8H15.9665V7C15.9665 4.79086 14.2297 3 12.0874 3C9.94502 3 8.20828 4.79086 8.20828 7V8Z" fill="#1C1C1C"/>
</svg>
