<svg width="24" height="24" viewBox="0 0 24 24" fill="none" xmlns="http://www.w3.org/2000/svg">
<path d="M19.8524 22H17.9129V20C17.9129 18.3431 16.6103 17 15.0035 17H9.18484C7.57806 17 6.2755 18.3431 6.2755 20V22H4.33594V20C4.33594 17.2386 6.50687 15 9.18484 15H15.0035C17.6815 15 19.8524 17.2386 19.8524 20V22ZM12.0942 13C8.88061 13 6.2755 10.3137 6.2755 7C6.2755 3.68629 8.88061 1 12.0942 1C15.3077 1 17.9129 3.68629 17.9129 7C17.9129 10.3137 15.3077 13 12.0942 13ZM12.0942 11C14.2365 11 15.9733 9.20914 15.9733 7C15.9733 4.79086 14.2365 3 12.0942 3C9.9518 3 8.21506 4.79086 8.21506 7C8.21506 9.20914 9.9518 11 12.0942 11Z" fill="#1C1C1C"/>
</svg>
